<?xml version="1.0" encoding="UTF-8"?>
<svg width="16px" height="16px" viewBox="0 0 236 236" version="1.1" xmlns="http://www.w3.org/2000/svg" xmlns:xlink="http://www.w3.org/1999/xlink">
    <!-- Generator: Sketch 49.3 (51167) - http://www.bohemiancoding.com/sketch -->
    <title>Logo</title>
    <desc>Created with Sketch.</desc>
    <defs>
        <filter x="-6.3%" y="-3.2%" width="112.6%" height="109.0%" filterUnits="objectBoundingBox" id="filter-1">
            <feOffset dx="0" dy="2" in="SourceAlpha" result="shadowOffsetOuter1"></feOffset>
            <feGaussianBlur stdDeviation="2" in="shadowOffsetOuter1" result="shadowBlurOuter1"></feGaussianBlur>
            <feColorMatrix values="0 0 0 0 0   0 0 0 0 0   0 0 0 0 0  0 0 0 0.5 0" type="matrix" in="shadowBlurOuter1" result="shadowMatrixOuter1"></feColorMatrix>
            <feMerge>
                <feMergeNode in="shadowMatrixOuter1"></feMergeNode>
                <feMergeNode in="SourceGraphic"></feMergeNode>
            </feMerge>
        </filter>
    </defs>
    <g id="Page-1" stroke="none" stroke-width="1" fill="none" fill-rule="evenodd">
        <g id="Logo">
            <circle id="Oval" fill="#0D9375" cx="118" cy="118" r="118"></circle>
            <g id="drop" filter="url(#filter-1)" transform="translate(63.000000, 41.000000)" fill="#FFFFFF" fill-rule="nonzero">
                <path d="M69.7415094,17.0887931 C66.1811321,11.8250066 63.0396226,6.982323 60.1075472,2.56074233 C59.6886792,1.92908794 59.0603774,1.29743356 58.4320755,0.876330639 C55.9188679,-0.808081048 52.5679245,0.0341247953 50.8924528,2.56074233 C48.1698113,6.982323 45.0283019,11.6144551 41.2584906,17.0887931 C24.7132075,41.5127626 0,78.3592682 0,99.4144143 C0,114.784671 6.28301887,128.681067 16.3358491,138.787538 C26.3886792,148.683456 40.2113208,155 55.5,155 C70.7886792,155 84.6113208,148.683456 94.6641509,138.576986 C104.716981,128.470516 111,114.57412 111,99.2038629 C111,78.1487168 86.2867925,41.5127626 69.7415094,17.0887931 Z M87.1245283,130.997133 C78.9566038,139.20864 67.8566038,144.051324 55.5,144.051324 C43.1433962,144.051324 32.0433962,138.998089 23.8754717,130.997133 C15.7075472,122.785626 10.890566,111.626399 10.890566,99.2038629 C10.890566,81.5175402 34.5566038,46.3554462 50.2641509,22.984234 C52.1490566,20.247065 53.8245283,17.509896 55.5,15.19383 C57.1754717,17.509896 58.8509434,20.247065 60.7358491,22.984234 C76.4433962,46.5659976 100.109434,81.5175402 100.109434,99.2038629 C100.109434,111.626399 95.0830189,122.785626 87.1245283,130.997133 Z" id="Shape"></path>
                <path d="M87.9737565,95.013452 C85.0494777,94.8004917 82.542953,97.1430551 82.3340759,100.124499 C82.1251988,104.809626 80.6630594,109.281793 78.3654118,113.115078 C76.0677641,116.948364 72.7257312,120.355729 68.7570671,122.485332 C66.2505423,123.976054 65.206157,127.383419 66.6682965,129.938942 C68.3393129,132.920387 71.6813459,133.772228 74.1878706,132.281506 C79.8275512,129.087101 84.4228465,124.401974 87.5560024,119.077967 C90.8980353,113.753959 92.7779288,107.36515 92.9868059,100.76338 C93.195683,97.781936 90.8980353,95.2264123 87.9737565,95.013452 Z" id="Shape"></path>
            </g>
        </g>
    </g>
</svg>